<?xml version="1.0" encoding="UTF-8"?>
<svg version="1.1" xmlns="http://www.w3.org/2000/svg" width="320" height="320">
<path d="M0 0 C0.88917114 -0.00040283 1.77834229 -0.00080566 2.69445801 -0.0012207 C41.57128171 0.10024426 76.35495709 14.93710459 104.0625 42.25 C127.38756667 65.91274407 144.67066099 99.37904644 144.98828125 133.10546875 C144.996353 133.93975906 145.00442474 134.77404938 145.01274109 135.63362122 C145.02653362 137.40115314 145.03727724 139.16871116 145.04516602 140.9362793 C145.05657248 142.70556711 145.07683934 144.47482372 145.10668945 146.24389648 C145.75240248 184.6295519 130.213198 219.06695007 103.89404297 246.62792969 C77.9809653 273.134655 43.02749342 288.3638196 6.03320312 289.02734375 C-35.12453817 289.44689259 -70.13800433 276.90085178 -100.25 248.4375 C-101.06082031 247.69113281 -101.87164062 246.94476563 -102.70703125 246.17578125 C-109.42857951 239.77178645 -114.7877811 232.67372475 -120.08251953 225.09130859 C-121.02557902 223.75540626 -122.00540408 222.44550404 -122.99609375 221.14453125 C-131.62325607 209.43122956 -136.76243761 193.45752988 -140.25 179.4375 C-140.50966553 178.4052832 -140.76933105 177.37306641 -141.03686523 176.30957031 C-143.2441297 166.58948257 -143.7461779 157.21068923 -143.69604492 147.25976562 C-143.68755349 144.7036006 -143.71639202 142.14969537 -143.74804688 139.59375 C-143.81365233 124.3485784 -141.29911377 109.66517103 -136.0625 95.3125 C-135.76770752 94.49249512 -135.47291504 93.67249023 -135.16918945 92.82763672 C-127.95087471 73.44792922 -116.55463363 57.20155252 -102.25 42.4375 C-101.41855469 41.57769531 -100.58710937 40.71789063 -99.73046875 39.83203125 C-92.24333726 32.22073506 -92.24333726 32.22073506 -88.25 29.4375 C-87.59 29.4375 -86.93 29.4375 -86.25 29.4375 C-86.25 28.7775 -86.25 28.1175 -86.25 27.4375 C-84.69970703 26.23583984 -84.69970703 26.23583984 -82.5078125 24.8984375 C-81.69812012 24.4041626 -80.88842773 23.9098877 -80.05419922 23.40063477 C-79.17006348 22.87655029 -78.28592773 22.35246582 -77.375 21.8125 C-76.4689502 21.27488037 -75.56290039 20.73726074 -74.62939453 20.18334961 C-60.53943308 11.97177804 -46.17094671 6.02990981 -30.25 2.4375 C-29.48961426 2.25276123 -28.72922852 2.06802246 -27.94580078 1.87768555 C-18.72354917 -0.11301682 -9.3909328 -0.00434423 0 0 Z " fill="#040404" transform="translate(159.25,15.5625)"/>
<path d="M0 0 C7.28916185 -0.4603498 14.57453802 -0.77309149 21.875 -0.98876953 C24.35135826 -1.07873098 26.82677508 -1.20116884 29.29980469 -1.35791016 C49.21739426 -2.58768869 49.21739426 -2.58768869 55.44519043 1.67276001 C59.73831428 5.84309919 62.83427711 10.65799393 65.76629639 15.84655762 C67.28089873 18.49031162 69.05492532 20.8539845 70.9375 23.24609375 C71.96100493 24.64127321 72.98193608 26.03834529 74 27.4375 C75.14951329 29.0092801 76.29926069 30.58088902 77.44921875 32.15234375 C78.02462402 32.9397998 78.6000293 33.72725586 79.19287109 34.53857422 C81.10272303 37.13991537 83.02806788 39.72920948 84.95703125 42.31640625 C85.60220703 43.18402588 86.24738281 44.05164551 86.91210938 44.94555664 C88.15400386 46.61487087 89.39868033 48.28212 90.64648438 49.94702148 C91.20271484 50.69669189 91.75894531 51.4463623 92.33203125 52.21875 C92.82421143 52.87810547 93.3163916 53.53746094 93.82348633 54.21679688 C95 56 95 56 96 59 C99.22980475 57.60951784 101.0660404 56.05300794 103.30078125 53.35546875 C106.80652239 49.21520433 110.46178203 45.25468647 114.1875 41.3125 C115.51080806 39.9066183 116.83371972 38.50036339 118.15625 37.09375 C118.8059375 36.4028125 119.455625 35.711875 120.125 35 C124.28637213 30.56120306 128.4022247 26.08040686 132.52197266 21.60302734 C134.07765941 19.91577276 135.63793303 18.23285547 137.19921875 16.55078125 C137.72652588 15.98085449 138.25383301 15.41092773 138.79711914 14.82373047 C139.83664436 13.70458821 140.88130106 12.59018725 141.93139648 11.48095703 C144.55343225 8.68924235 146.71066284 5.91536806 148.75 2.6875 C150.0234375 1.1015625 150.0234375 1.1015625 152 0 C157.40118156 -0.57138248 162.5930841 -0.40455547 168 0 C161.41731831 7.70655418 154.77500707 15.32046327 147.8125 22.6875 C146.48919194 24.0933817 145.16628028 25.49963661 143.84375 26.90625 C143.1940625 27.5971875 142.544375 28.288125 141.875 29 C137.70797742 33.44482409 133.58603568 37.93131104 129.46044922 42.41455078 C127.44415456 44.60342031 125.42321265 46.78797389 123.40185547 48.97216797 C122.39513776 50.06194714 121.39021077 51.15338366 120.38720703 52.24658203 C117.95057499 54.90185503 115.49547572 57.53220509 112.98828125 60.12109375 C112.51600098 60.61722168 112.0437207 61.11334961 111.55712891 61.62451172 C110.26864849 62.97730132 108.96867523 64.31911779 107.66796875 65.66015625 C105.81600043 67.78726369 105.81600043 67.78726369 105.9765625 69.9609375 C107.39877442 72.79450476 109.20660973 75.08396357 111.1875 77.5625 C112.10740407 78.72894508 113.02525442 79.89701177 113.94140625 81.06640625 C114.43656738 81.69820801 114.93172852 82.33000977 115.44189453 82.98095703 C118.23756351 86.60367443 120.92459871 90.30605844 123.625 94 C128.67583933 100.89141706 133.80658168 107.71544399 139 114.5 C144.6625217 121.8999249 150.24738369 129.34968487 155.75048828 136.86889648 C158.86947457 141.12601243 162.01778781 145.35767118 165.20703125 149.5625 C165.9023999 150.48087646 166.59776855 151.39925293 167.31420898 152.34545898 C168.66519145 154.12665598 170.02004139 155.90492767 171.37915039 157.67993164 C172.28588501 158.87670532 172.28588501 158.87670532 173.2109375 160.09765625 C173.75024902 160.80414307 174.28956055 161.51062988 174.84521484 162.23852539 C176 164 176 164 176 166 C168.69251519 166.4598934 161.38879232 166.77290627 154.07006836 166.98876953 C151.58688049 167.07879739 149.10463407 167.20128627 146.62475586 167.35791016 C126.63755747 168.58776793 126.63755747 168.58776793 120.67129517 164.34335327 C116.61753262 160.16155959 113.83846354 155.34329943 111.17630005 150.19641113 C109.6399521 147.32771132 107.75538214 144.85128341 105.72265625 142.31640625 C105.11389648 141.52363281 104.50513672 140.73085937 103.87792969 139.9140625 C103.27883789 139.13804687 102.67974609 138.36203125 102.0625 137.5625 C96.12028077 129.81758505 90.27586907 122.00857687 84.51586914 114.12719727 C81.75285989 110.35145817 78.96236256 106.623861 76 103 C72.53891463 104.48443842 70.31486374 106.44630233 67.6875 109.125 C66.96949219 109.84945312 66.25148438 110.57390625 65.51171875 111.3203125 C63.52387751 113.44108869 61.60375214 115.5871542 59.69921875 117.78125 C55.95370798 122.0887638 52.0553917 126.236551 48.125 130.375 C43.86875776 134.87523065 39.61852607 139.37262129 35.5 144 C34.48292969 145.10988281 34.48292969 145.10988281 33.4453125 146.2421875 C31.37261298 148.57976874 29.4017985 150.9613339 27.4296875 153.3828125 C16.6610633 166.17979153 16.6610633 166.17979153 10.6328125 167.08984375 C7.00217548 167.23399024 3.55110672 166.78063122 0 166 C2.1329051 162.10121568 4.55193001 159.26142131 7.75 156.1875 C11.4349816 152.63578031 14.83290823 148.941884 18.17919922 145.0769043 C21.10018907 141.74506457 24.14435592 138.53245425 27.1875 135.3125 C28.51080806 133.9066183 29.83371972 132.50036339 31.15625 131.09375 C31.8059375 130.4028125 32.455625 129.711875 33.125 129 C37.28919733 124.55818952 41.40809452 120.0745479 45.53076172 115.59423828 C47.06079897 113.93402837 48.59440461 112.27717769 50.12890625 110.62109375 C55.82201896 104.4739834 61.46961987 98.29487385 67 92 C64.51913003 87.49643876 61.94050548 83.42448772 58.75 79.375 C57.86393465 78.24008948 56.978569 77.10463248 56.09375 75.96875 C55.60519531 75.34355469 55.11664063 74.71835938 54.61328125 74.07421875 C44.4439661 60.99938499 34.52805914 47.73495991 24.73974609 34.37353516 C21.7285108 30.2653076 18.70809009 26.16385168 15.6875 22.0625 C14.81689941 20.87914062 14.81689941 20.87914062 13.92871094 19.671875 C9.82340889 14.09787588 5.67150344 8.56150088 1.4765625 3.0546875 C0 1 0 1 0 0 Z " fill="#F8F8F8" transform="translate(72,77)"/>
<path d="M0 0 C19.3275426 -3.3043707 19.3275426 -3.3043707 26.48144531 1.75488281 C31.20451282 6.63010283 34.7192567 12.34714132 38.22363281 18.13134766 C40.89650401 22.44776279 43.94239842 26.45205945 47 30.5 C48.14747011 32.06129838 49.29328986 33.62381095 50.4375 35.1875 C54.23213472 40.33736141 58.11215379 45.42033409 62 50.5 C67.67230923 57.91282362 73.26147242 65.37928057 78.78125 72.90625 C83.60343882 79.47798579 88.49062581 85.9991608 93.39038086 92.51318359 C97.67169619 98.21161263 101.90891117 103.94069181 106.125 109.6875 C111.21670331 116.6262149 116.39137628 123.4949186 121.65087891 130.30737305 C131 142.43763838 131 142.43763838 131 144 C109.88070313 146.19640687 109.88070313 146.19640687 104.02783203 142.88378906 C100.85009882 139.82143969 99.00324987 135.97624172 97.08544922 132.04833984 C95.20978343 128.50879059 92.71053963 125.45974777 90.25 122.3125 C89.22884527 120.96445072 88.21067328 119.61413744 87.1953125 118.26171875 C86.41462402 117.224104 86.41462402 117.224104 85.61816406 116.16552734 C83.35203088 113.13284761 81.11727198 110.07757689 78.88085938 107.02294922 C73.60970393 99.82421608 68.25737033 92.70744739 62.75 85.6875 C58.33706652 80.06209614 54.06710206 74.37765456 49.95898438 68.52685547 C45.52763125 62.25503265 40.83437147 56.18561608 36.16455078 50.09057617 C31.13658448 43.51821348 26.20378021 36.88318869 21.32080078 30.20263672 C18.11879456 25.83509656 14.8707907 21.50859382 11.5703125 17.21484375 C10.83039063 16.25191406 10.09046875 15.28898437 9.328125 14.296875 C7.88189988 12.41985942 6.43150698 10.54604624 4.9765625 8.67578125 C4.326875 7.83273438 3.6771875 6.9896875 3.0078125 6.12109375 C2.42660645 5.3727124 1.84540039 4.62433105 1.24658203 3.85327148 C0 2 0 2 0 0 Z " fill="#040404" transform="translate(95,88)"/>
</svg>
